<svg xmlns="http://www.w3.org/2000/svg" viewBox="0 0 1532.083 300"><g fill="#333"><path d="M150.007 0C67.288 0 0 67.29 0 149.995 0 232.712 67.288 300 150.007 300c82.71 0 150.007-67.288 150.007-150.005C300.014 67.29 232.716 0 150.007 0zm0 295.812c-80.404 0-145.81-65.41-145.81-145.817 0-80.394 65.406-145.802 145.81-145.802 80.394 0 145.81 65.408 145.81 145.802 0 80.406-65.416 145.817-145.81 145.817z"/><path d="M238.02 138.532c-2.076-4.341-.653-7.188-1.27-10.362-.455-2.341-3.94-10.054-6.16-15.396-1.046-2.514 5.376-1.897.632-10.979-.136-.27 6.597-2.756-.136-7.861-3.766-2.857-6.415-6.371-8.493-9.533-.29-.44-.565-1.31.044-1.853 3.807-3.383 3.886-8.252-.247-10.742-2.983-1.796-6.407.026-9.557 2.067-1.037.673-1.558 1.085-2.643.644-.55-.224-1.613-.973-2.569-1.63 3.886-3.756 4.64-7.462 4.335-8.078-.207-.417-6.587-1.849-14.488 1.42-.173-.098-.358-.2-.559-.307 3.254-5.629 1.428-9.599 1.184-9.873-.004-.004-.012-.006-.017-.01 5.921-8.268 11.8-13.77 17.61-19.052l.13-.142c.379-.384.519-.811-.204-1.263-.61-.384-.78-.474-1.525-.88-19.474-10.843-41.67-16.542-64.08-16.542C77.31 18.16 18.17 77.31 18.17 149.995c0 42.118 21.371 82.741 56.294 107.976 2.328 1.682 3.94 2.323 3.94 2.323.58.201 1.179.198 1.543-.28l.517-.678c.332-.428.462-.837.462-1.213 0-.962-1.394-1.825-3.027-4.247-4.721-7.003-6.808-14.965-6.808-21.636 0-7.294 2.222-13.93 6.49-19.466 5.262 5.484 16.74 15.565 16.49 24.736-.28 10.3-9.914 9.792-7.836 17.518 1.304 4.849 4.931 2.851 5.557 6.529 1.085 6.37 9.653 10.443 13.385 9.883.904-.135 1.674.615 3.46 2.429 2.55 2.587 8.818 2.236 11.6 1.728 2.645-.483 5.967 1.931 11.496 1.322 6.921-.764 8.682-1.299 11.637-1.341 5-.072 32.2-.478 51.537 2.551 3.334.522 4.39-.98 2.897-3.581-7.008-12.205-7.98-22.57-3.94-35.622 7.143.48 17.41 2.412 30.93-5.714 4.799-2.884 7.48-9.029 7.249-13.607-.154-2.97-1.453-6.73-.684-9.626 1.034-3.89 1.79-3.798 2.912-4.587 5.163-3.632 1.435-6.513.64-6.806 1.56-.635 3.27-4.025 1.469-6.55-.924-.984-3.736-8.886-.494-10.532 3.502-1.777 7.494-2.531 11.518-4.298 2.763-1.155 4.97-4.378 3.394-8.659-1.894-5.146-12.455-29.341-12.777-30.015zM92.47 255.91c-1.012.2-4.25.324-3.524-3.93.448-2.628 3.298-3.728 4.744-2.237-.308 2.04-1.012 4.034-1.22 6.167zM216.753 75.963c1.705-1.073 3.54-1.53 4.62-.463 3.75 3.705-4.067 5.783-2.44 8.63 2.668 4.668 6.915 9.135 10.663 12.018 1.762 1.355 2.017 4.408-4.715 5.802-6.776 1.403-33.76 8.514-47.999 23.598-17.826 18.887-29.156 43.35-30.703 39.987-1.558-3.388-5.129-3.936-4.57-4.898 25.593-44.101 65.705-78.736 75.144-84.674zm11.736 30.983c-1.47 4.205-13.092 7.94-12.541 4.986.248-1.333.027-3.089.914-3.24 1.287-.22 4.96-1.503 10.67-2.965.571-.146 1.321.177.957 1.22zm-29.481 7.636c-.295-1.72 12.2-5.921 12.634-4.678.802 2.295-2.581 8.458-6.765 9.999-4.75 1.75-6.727 1.23-6.547.552.331-1.241.949-4.292.678-5.873zm-29 65.154c-5.745 3.522-8.862-3.21-9.675-4.385-.352-.508-1.266-1.988-.768-4.518.39-1.992.722-4.7-.588-13.284-.576-3.775 7.234-13.139 8.991-14.774 1.827-1.7 4.48.847 4.653 3.612.328 5.255-2.621 8.02-5.633 10.262-3.696 2.753-4.399 6.336-3.696 7.294.274.374 1.932.384 2.661-1.169 2.227-4.74 8.59-7.126 9.606-9.607 1.586-3.875.426-6.365.27-7.997-.135-1.424 1.257-1.784 2.305-1.627 1.355.203 1.957 2.042 2.643 3.83 4.113 10.719-6.238 17.198-7.906 19.737-.769 1.17 1.604 9.887-2.862 12.626zm8.667-41.572c-3.08 2.092-7.52-.743-6.633-2.01 5.72-8.165 13.343-13.846 16.393-15.744 4.902-3.05 5.422-3.264 5.679-1.54.155 1.04.207 6.378-3.743 10.716-3.275 3.596-6.562 3.293-8.25 3.671-1.14.256-1.073 3.295-3.446 4.907zm-27.514 36.6c-1.413-.31-1.943-3.073-1.655-4.165.639-2.426 4.366-7.447 5.71-9.207.336-.44 1.021-.034 1.095.495.814 5.828-.005 14.005-5.15 12.876zm45.958-105.91c5.164-2.322 10.161-2.361 10.697-2.297 1.172.14-2.61 6.862-9.35 9.756-6.947 2.982-12.135 3.523-12.726 3.232-.888-.44 5.887-8.216 11.38-10.69zM78.135 180.643c-2.061-2.372-3.975-3.672-4.173-3.534-.574.403-3.91 6.108-5.064 12.773-6.504-12.433-10.105-25.001-10.692-39.887-1.994-50.576 40.364-91.302 92.051-91.122 11.791.041 21.486 2.221 32.075 6.52-2.37 2.964-4.091 6.513-5.258 9.488-.054-2.742-.773-4.87-.573-6.583.124-1.054-7.322 1.264-13.936 11.792-1.533 2.44-2.485 5.14-3.079 7.63-.136-3.95-1.063-7.029-1.335-6.954-.677.184-8.226 3.297-12.16 12.518a28.76 28.76 0 00-1.563 4.898c-.328-2.812-1.053-4.663-1.283-4.653-.497.02-8.407 3.273-12.304 12.746-.906 2.204-1.386 4.456-1.612 6.548-.7-3.297-1.977-5.316-2.38-4.804-2.732 3.464-8.065 5-10.9 13.731-.665 2.05-.931 4.099-.964 6.01-1.176-2.955-2.826-4.657-3.207-4.577-.771.16-8.829 7.819-10.034 15.539-.475 3.045-.257 5.874.215 8.246-1.54-2.487-3.588-4.31-4.418-6.845-1.266.677-8.09 7.092-8.31 15.309-.085 3.195.39 6.198 1.049 8.73-2.27-4.12-5.488-6.052-5.843-5.835-.591.362-5.685 5.873-6.869 15.766-.277 2.317.006 4.538.567 6.55zM183.962 66.825c4.068-4.82 10.973-8.7 11.748-8.223.792.487-1.16 7.935-5.616 12.321-4.5 4.43-11.46 8.742-12.27 8.69-.81-.053 2.479-8.45 6.138-12.788zM170.77 85.44c-3.946 3.2-5.74 5.325-8.045 9.075-.785 1.279-2.698-7.104 2.432-15.15 3.143-4.93 9.4-9.35 9.265-8.763-.453 1.964 3.034 9.416-3.652 14.838zm-14.472 10.73c-4.833 7.204-5.108 4.742-10.396 11.79-.29.387-.394-9.197 1.492-13.417 2.975-6.657 8.135-10.57 8.904-10.706.768-.135 2.666 8.357 0 12.332zm-15.82 14.41c-2.485 4.336-4.745 3.342-8.881 9.496-.457.68-1.551-5.09.927-12.884 1.91-6.007 7.822-9.744 8.452-9.893.949-.226 2.458 8.125-.497 13.28zm-14.734 15.268c-2.531 5.511-4.158 5.692-7.096 9.125-.505.59-2.705-5.24-.574-12.566 1.704-5.865 5.636-8.033 7.535-10.02.75-.786 2.824 7.606.135 13.46zm-11.977 9.441c0 1.682-.208 2.64-.689 4.285-1.8 6.204-5.458 8.815-7.447 11.616-.796-1.834-2.262-4.436-2.272-8.37-.02-7.497 4.548-13.887 7.41-15.904 1.084-.045 2.998 4.517 2.998 8.373zm-12.204 18.295c-.135 8.719-5.611 13.83-7.245 15.45-1.017-1.728-3.013-6.174-3.15-10.842-.263-8.987 3.453-12.177 5.062-13.913.768 2.574 5.407 4.613 5.333 9.305zm-17.269 8.944c2.511 1.265 5.543 4.924 5.827 11.7.285 6.804-4.585 12.557-6.49 13.462-1.326-5.195-3.84-6.286-3.793-11.44.051-5.636 2.908-11.825 4.456-13.722zm10.4 17.934c6.54-2.846 13.683-2.406 13.983-2.13.299.278-2.088 8.322-8.45 11.737-6.35 3.401-13.516 3.718-14.167 2.906-.361-.452 2.093-9.667 8.633-12.513zm-.498-4.833c.407-2.169 4.287-9.357 10.122-11.955 5.844-2.606 12.613-2.41 13.38-2.094.77.316-2.429 7.98-8.316 10.796-6.584 3.15-9.22 1.31-15.186 3.253zm9.808-16.85c.27-.661 5.03-9.212 10.622-11.835 5.543-2.598 12.242-2.047 12.7-1.897.458.149-2.547 7.708-8.892 10.855-6.27 3.117-14.7 3.538-14.43 2.877zm12.746-17.075c-.456-.347 6.296-9.184 11.932-11.79 4.956-2.292 11.435-1.807 11.978-1.446.542.361-2.64 7.8-9.176 10.66-6.231 2.73-14.278 2.922-14.734 2.576zm15.277-16.895c-.375-.185 4.783-8.974 10.576-11.203 5.535-2.125 11.017-.202 12.7-.09 1.356.09-1.898 6.46-9.491 9.26-6.331 2.335-12.814 2.512-13.785 2.033zm17.146-16.269c.101-.408 5.77-8.392 11.61-10.416 5.557-1.92 12.356-.633 13.086-.327s-3.935 7.27-11.074 9.414c-6.422 1.93-13.724 1.738-13.622 1.33zm17.316-14.07c-.748-.523 6.095-8.177 11.665-10.296 5.447-2.07 11.331-1.687 11.805-1.418.474.27-3.568 6.9-10.138 9.563-6.18 2.503-12.585 2.673-13.332 2.15zM71.732 250.486c-30.89-24.604-49.374-61.753-49.374-100.492 0-70.378 57.257-127.642 127.65-127.642 20.53 0 41.132 5.142 59.21 14.562.364.19.423.685.115.954-5.314 4.64-12.687 13.738-14.544 16.28-14.054-6.583-29.1-9.944-44.782-9.944-58.335 0-105.803 47.457-105.803 105.79 0 26.03 8.823 49.775 25.462 68.83-.958 2.215-2.657 7.062-2.657 13.478 0 5.309.983 11.417 4.723 18.184zm.206-35.498c-.023.02-.042.04-.064.058-15.368-18.102-23.473-40.526-23.473-65.052 0-56.025 45.576-101.599 101.606-101.599 14.783 0 28.988 3.09 42.28 9.183-1.751.814-3.763 2.007-5.84 3.708-11.694-4.954-23.47-7.278-36.44-7.278-52.93 0-95.998 43.06-95.998 95.986 0 22.956 7.162 43.128 21.192 60.056-.813 1.233-1.954 2.965-3.263 4.938zm5.059-7.972c-1.86-1.764-5.882-6.207-6.269-11.93a12.387 12.387 0 01-.028-.835c-.016-6.153 2.705-12.209 3.383-12.887.678-.677 7.623 4.723 7.729 12.468.092 6.713-2.983 10.57-4.815 13.184zm11.459-10.293c5.516-2.617 13.74-1.987 13.288-1.626s-2.618 8.353-8.836 11.474c-6.202 3.113-10.311 2.277-12.542 1.852 3.344-3.659 2.641-9.105 8.09-11.7zm7.46 66.358c-.935-3.764-.562-8.95.722-10.347 2.476-1.207 7.003-1.671 7.081-.227.125 2.306-1.556 7.775.42 14.595-.453 1.074-6.63.61-8.224-4.021zm.41-15.788c-.486-2.835 2.24-5.557 2.183-11.743-.07-7.588-9.428-17.993-15.764-24.68 2.972-.001 6.868-.707 11.241-2.732 9.43-4.368 11.284-14.396 11.555-14.803.126-.189-2.106-.63-5.323-.674.347-.168.695-.342 1.047-.531 9.227-4.947 11.643-15.644 11.203-15.88-.175-.095-2.473-.454-5.694-.372a53.336 53.336 0 002.792-1.024c9.76-3.88 12.49-14.743 12.142-15.093-.153-.154-2.105-.544-4.948-.62.864-.335 1.749-.72 2.652-1.168 8.915-4.43 12.002-14.392 11.54-14.722-.202-.143-2.011-.494-4.647-.533a34.378 34.378 0 006.433-2.095c9.551-4.184 12.637-13.321 12.223-13.71-.176-.165-1.795-.612-4.228-.812a59.813 59.813 0 006.208-1.77c9.447-3.227 13.263-12.255 12.702-12.307-1.276-.118-3.034-.738-5.31-1.135 2.573-.166 5.572-.637 9.332-1.908 10.204-3.448 13.82-9.593 14.002-12.257.012-.173-1.22-.712-3.208-1.146 2.34-.426 4.687-1.003 6.622-1.789 9.528-3.859 13.495-13.225 13.808-13.997a53.827 53.827 0 005.554-2.155c.993-.45 1.903-.926 2.741-1.419a35.99 35.99 0 002.313 1.597c1.44.925 1.95 1.143 1.237 1.75-32.429 27.628-56.727 62.52-67.33 79.478-.298.476-.857.391-1.757.332-11.359-.754-17.797 12.767-12.714 25.44-.645 2.578-6.034 7.555-6.44 7.916s-1.494 1.944.351 1.778c2.653-.24 6.043-4.488 7.663-6.4.673.838 3.17 2.918 1.967 4.099-9.652 9.471-19.209 14.57-19.955 14.935-3.613 1.765 6.03 2.985 22.466-11.875.967-.874 2.114 3.43 3.582 5.272-2.823 9.317 4.135 27.3 3.05 32.941-.189.988-.777 3.774-4.061 3.842-16.286.334-17.885-.413-26.17 2.03-3.866 1.14-2.85 3.69-.044 2.928 3.176-.863 6.51-2.152 24.144-1.051 4.307.269 9.233-.872 9.265-8.149.03-6.597-5.212-26.27-3.441-28.961 2.34 1.761 4.032 1.83 4.924 1.987-.234 6.416 10.098 27.148 5.497 38.584-1.71 4.248-9.21 3.932-22.04 2.66-21.837-2.162-28.918 2.56-29.366-.058zm50.153 14.104c-8.494 2.944-11.844-6.99-10.446-9.13.84-1.285 6.201 1.461 10.375-1.23 3.215-2.073 4.99 8.655.071 10.36zm-38.553 6.2c-1.19-5.255-1.664-14.366.52-16.394.432-.4 6.97-1.337 6.85.156-.502 6.276-3.037 13.281 1.74 20.262 1.786 2.609-7.514 3.025-9.11-4.024zm16.2 6.006c-2.28-.566-8.574-10.586-3.451-22.54.542-1.265 8.394-.479 9.709-.081 1.315.397-1.08 9.794 9.708 13.958 1.103.425-.046 12.61-15.965 8.663zm67.496-33.389c-3.648 12.625-5.486 17.666-.007 31.376.728 1.823 1.277 3.196-.322 2.922-11.036-1.894-13.419-3.705-48.073-.769-2.493.212.813-4.834.407-8.268 3.163-.406 8.223-1.852 9.295-7.006 1.302-6.255-3.057-10.845-2.597-11.742 4.914-9.58-.318-20.198-4.472-37.99-.389-1.668.576-2.396 1.306-1.606 22.266 24.097 36.453 28.886 44.12 31.163.763.226.612 1.093.343 1.92zm56.94-65.815c-4.655 4.113-11.805 4.452-14.695 7.083-1.508 1.373-2.187 3.528-.56 7.38.937 2.219 1.586 2.493-1.607 3.346-5.185 1.386-5.895 8.195-12.496 6.945-2.644-.5-.747 1.194.203 1.284 3.78.357 5.275-.707 6.6-1.948 1.325-1.24 3.092-3.474 5.121-4.243 2.092-.792 4.209-.739 4.245.828.028 1.195-2.615 3.092-3.725 3.607 1.348.705 5.482 2.806 1.957 5.2-2.75 1.869-6.536-.72-7.082-1.038-.813-.475-2.372-.238-1.856.395 2.041 2.496 7.515 1.841 6.533 3.163-5.052 6.793-.937 10.76-2.474 17.587-1.559 6.923-11.03 10.712-18.322 12.027-24.804 4.475-48.93-16.625-63.072-32.529 1.287-3.015 1.122-6.957-.17-5.557-1.22 1.321-1.017 3.525-3.965 4.269-5.684 1.435-8.131-8.438-9.894-10.165-6.91-6.769-9.649-16.33-5.523-24.692 4.167-8.448 12.826-6.755 16.282-1.645 4.298 6.355 2.31 9.97 4.75 11.868 3.428 2.667 6.877.287 7.804.034 2.61-.712 2.41 6.186 11.324 5.866 9.584-.343 8.5-15.253 9.855-16.574 12.301-11.994 6.02-22.7 3.786-25.186-.6-.67 1.365-5.074 2.09-5.235 7.224-1.596 11.305-6.21 13.507-11.09 0 0 11.996-.203 16.265-8.844 1.141-2.31 4.675 2.227 12.687-4.07.902-.708 1.753-.371 2.091.458 5.147 12.625 7.316 16.116 6.919 22.552-.29 4.682 12.49 30.662 13.421 32.91 1.039 2.503 1.194 4.96 0 6.014z"/><path d="M219.692 128.63c-6.984.259-15.093 8.814-17.743 10-2.78 1.246-1.79 2.033-.174 1.444 3.479-1.269 8.432-6.578 15.277-9.052 5.403-1.953 5.052 2.495 7.082 2.25.95-.115-.406-4.791-4.442-4.642zm1.579 6.846c-.576.138.61 3.12-2.426 3.307-6.567.404-11.766 6.62-15.768 8.485-4.001 1.866-4.835 1.836-5.43 1.995-.536.144-.334.829.106.888 16.74 2.237 23.172 1.625 23.315 1.017.27-1.153-.932-1.729-.683-2.468.63-1.865.944-5.398.227-7.824-.307-1.145 2.478-.378 2.478-1.922 0-.833-.84-3.712-1.819-3.478zm-2.576 13.218c-.319 1.306-7.793.712-11.86.356-.966-.085-2.591-.233.509-2.085 2.44-1.456 5.794-3.913 10.183-4.762.358-.07 1.061.045 1.242.861.452 2.055.254 4.293-.074 5.63zm21.857 23.842c-1.278-.018-6.434 2.34-8.37 3.572-1.118.711-6.36 3.941-5.983-1.17.131-1.791 1.294-6.235 1.266-7.446-.044-1.847-1.524-1.118-1.552-.025-.064 2.566-.579 4.515-1.107 7.522-.451 2.576 1.785 5.76 5.264 3.909 2.885-1.536 6.822-4.18 10.313-4.848.89-.17 1.05-1.5.169-1.514zm-96.96 18.294c-.99-.373-.715 1.672-2.055 1.446-1.755-.295-.283-1.874-2.569-4.294-1.136-1.203-3.992-1.711-6.099-5.083-3.335-5.336-.47-17.226 4.405-15.52 2.71.95 2.237 7.252 1.423 11.522-.5 2.63 3.592 3.928 3.962 3.01.623-1.546-1.505-1.398-1.992-2.81-.75-2.166 5.01-10.841-2.517-13.353-5.498-1.835-9.115 5.086-8.453 12.743.558 6.457 4.851 9.123 7.306 10.033 3.315 1.23.802 5.766 5.271 5.787 1.978.01 2.388-3.08 1.318-3.481zm43.982-143.114a.58.58 0 00.655-.184l9.297-11.764a.584.584 0 00-.233-.901 89.488 89.488 0 00-1.576-.63.586.586 0 00-.67.183l-9.34 11.812a.58.58 0 00.263.907c.536.189 1.07.381 1.604.577zm-17.253-4.794c.536.102 1.068.209 1.6.32a.582.582 0 00.66-.35l5.442-13.468a.581.581 0 00-.41-.786c-.604-.135-1.205-.261-1.81-.388a.347.347 0 00-.394.209l-5.523 13.678a.58.58 0 00.435.785zM151.15 41.04c.541.004 1.08.013 1.618.028a.578.578 0 00.592-.525l1.345-14.298a.583.583 0 00-.563-.637c-.545-.016-1.089-.03-1.634-.042a.583.583 0 00-.592.53l-1.34 14.31a.58.58 0 00.575.634zm-18.631 1.399c.533-.085 1.065-.167 1.6-.246a.58.58 0 00.486-.684l-2.724-14.094a.584.584 0 00-.658-.467c-.538.08-1.076.167-1.612.256a.583.583 0 00-.476.686l2.72 14.087a.58.58 0 00.664.462zm-19.026 4.352a.58.58 0 00.71.288c.515-.179 1.029-.354 1.545-.527a.58.58 0 00.336-.809l-6.452-12.948a.585.585 0 00-.714-.292c-.52.181-1.034.365-1.548.552a.583.583 0 00-.323.808l6.446 12.928zM95.72 55.007a.577.577 0 00.722.12c.477-.271.957-.54 1.44-.802a.58.58 0 00.16-.891L88.394 42.41a.584.584 0 00-.735-.12c-.476.28-.95.563-1.423.848a.583.583 0 00-.137.883l9.621 10.985zM79.202 66.671a.58.58 0 00.704-.032c.43-.36.861-.718 1.295-1.074a.58.58 0 00-.035-.926l-12.195-8.472a.583.583 0 00-.716.04c-.423.369-.843.74-1.26 1.116a.583.583 0 00.06.912l12.147 8.436zM64.804 81.507c.236.091.502.02.66-.177.356-.44.717-.877 1.081-1.31a.58.58 0 00-.232-.914l-14.021-5.46a.584.584 0 00-.674.185c-.347.447-.69.898-1.03 1.35a.583.583 0 00.256.892l13.96 5.434zM38.31 96.836l15.028 2.098a.577.577 0 00.59-.302c.27-.509.547-1.015.827-1.518a.58.58 0 00-.427-.857l-15.105-2.102a.583.583 0 00-.602.316c-.255.51-.507 1.021-.757 1.534a.584.584 0 00.446.83zm-8.22 22.781l15.323-1.467a.58.58 0 00.499-.406c.173-.557.35-1.116.532-1.67a.582.582 0 00-.607-.762l-15.412 1.47a.585.585 0 00-.508.427c-.153.56-.303 1.12-.448 1.684-.101.39.22.763.62.724zm11.627 18.211c.066-.594.137-1.19.213-1.785a.58.58 0 00-.766-.624l-14.934 5.194a.584.584 0 00-.391.51 119.87 119.87 0 00-.11 1.763.583.583 0 00.773.582l14.83-5.157a.577.577 0 00.385-.483zm-.373 20.39c-.046-.614-.087-1.23-.123-1.848a.58.58 0 00-.897-.455L26.797 164.8a.584.584 0 00-.258.564c.077.596.158 1.19.245 1.784.061.42.542.635.897.402l13.404-8.804a.577.577 0 00.259-.527zm3.385 20.382a84.82 84.82 0 01-.47-1.875.582.582 0 00-.997-.256L32.26 188.586a.583.583 0 00-.12.582c.2.583.403 1.164.611 1.745a.584.584 0 00.98.193L44.6 179.138a.578.578 0 00.13-.537zm5.623 18.089l-7.759 14.76a.584.584 0 00.012.566c.32.55.646 1.1.977 1.646a.583.583 0 001.014-.034l7.676-14.603a.581.581 0 00.005-.531c-.298-.596-.597-1.19-.888-1.79a.581.581 0 00-1.037-.014zm10.914 16.591a.581.581 0 00-1.034.207l-4.155 17.137a.586.586 0 00.125.52c.431.503.868 1 1.307 1.496a.582.582 0 001.002-.25l4.106-16.94a.58.58 0 00-.1-.487 103.33 103.33 0 01-1.251-1.684z"/></g><path d="M395.196 78.528l15.888 44.86 15.803-44.86h16.737v61.851h-12.787v-16.907l1.275-29.184-16.695 46.091h-8.751l-16.652-46.048 1.274 29.141v16.907h-12.744V78.528h16.652zm103.594 49.107h-22.345l-4.248 12.744h-13.551l23.024-61.851h11.81l23.151 61.851h-13.55l-4.291-12.744zm-18.904-10.323h15.463l-7.774-23.151-7.69 23.151zm73.007-17.459l11.597-21.325h14.656l-18.012 30.67 18.48 31.181h-14.826l-11.895-21.665L541 140.38h-14.826l18.479-31.18-18.012-30.671h14.656l11.597 21.325zm84.248 18.734v21.792h-12.744V78.528h24.129c4.644 0 8.73.85 12.256 2.549 3.525 1.699 6.237 4.113 8.135 7.243 1.896 3.13 2.846 6.69 2.846 10.683 0 6.061-2.075 10.84-6.223 14.337-4.15 3.498-9.892 5.247-17.227 5.247h-11.172zm0-10.323h11.385c3.37 0 5.94-.792 7.71-2.379 1.77-1.586 2.655-3.85 2.655-6.797 0-3.03-.892-5.48-2.676-7.349s-4.248-2.831-7.392-2.888h-11.682v19.413zm64.469 21.878h27.06v10.237h-39.804V78.528h12.744v51.614zm78.445-2.507h-22.346l-4.248 12.744h-13.55l23.024-61.851h11.81l23.151 61.851h-13.55l-4.291-12.744zm-18.905-10.323h15.463l-7.773-23.151-7.69 23.151zm101.173 23.068H849.58l-24.808-40.697v40.696h-12.745V78.528h12.745l24.85 40.781V78.528h12.702v61.851zm68.037-20.604c-.482 6.656-2.938 11.895-7.37 15.718s-10.274 5.735-17.524 5.735c-7.93 0-14.167-2.669-18.712-8.008-4.546-5.338-6.818-12.665-6.818-21.983v-3.781c0-5.947 1.047-11.186 3.143-15.718 2.096-4.53 5.09-8.007 8.984-10.429 3.894-2.42 8.418-3.632 13.573-3.632 7.136 0 12.885 1.912 17.248 5.735 4.36 3.823 6.88 9.19 7.56 16.1H917.7c-.311-3.993-1.423-6.888-3.334-8.687-1.912-1.798-4.822-2.698-8.73-2.698-4.248 0-7.427 1.523-9.536 4.567-2.11 3.045-3.194 7.767-3.25 14.167v4.673c0 6.684 1.012 11.57 3.037 14.656 2.024 3.087 5.218 4.63 9.579 4.63 3.936 0 6.875-.899 8.815-2.697 1.94-1.798 3.051-4.581 3.335-8.348h12.744zm36.092-4.206l-6.627 7.138v17.671h-12.744V78.528h12.744v28.037l5.608-7.689 15.76-20.348h15.675l-21.962 27.485 22.6 34.366H982.34l-15.888-24.808zm87.774 24.81h-12.745V78.527h12.745v61.851zm70.458 0h-12.745l-24.808-40.697v40.696h-12.744V78.528h12.744l24.85 40.781V78.528h12.703v61.851zm51.556-16.228c0-2.407-.85-4.255-2.55-5.544-1.699-1.288-4.757-2.648-9.175-4.078-4.418-1.43-7.916-2.84-10.494-4.227-7.023-3.795-10.535-8.906-10.535-15.335 0-3.342.942-6.322 2.826-8.942 1.882-2.62 4.587-4.666 8.113-6.139 3.526-1.472 7.483-2.209 11.873-2.209 4.418 0 8.354.8 11.81 2.4 3.455 1.6 6.138 3.86 8.05 6.776 1.911 2.917 2.867 6.23 2.867 9.94h-12.744c0-2.831-.891-5.034-2.676-6.605-1.784-1.572-4.29-2.358-7.52-2.358-3.114 0-5.536.659-7.264 1.975-1.727 1.318-2.59 3.052-2.59 5.204 0 2.012 1.012 3.696 3.037 5.055s5.005 2.634 8.942 3.824c7.25 2.18 12.531 4.885 15.846 8.113 3.312 3.229 4.97 7.25 4.97 12.065 0 5.352-2.026 9.551-6.076 12.596s-9.5 4.566-16.354 4.566c-4.758 0-9.091-.871-13-2.612-3.908-1.742-6.888-4.128-8.942-7.158-2.053-3.03-3.079-6.542-3.079-10.536h12.786c0 6.826 4.078 10.238 12.235 10.238 3.03 0 5.395-.616 7.094-1.848 1.7-1.231 2.55-2.952 2.55-5.161zm76.32-35.302h-18.947v51.53h-12.744V88.85h-18.691V78.529h50.382V88.85zm29.168 51.53h-12.745V78.527h12.745v61.851zm65.487-51.53h-18.946v51.53h-12.745V88.85h-18.691V78.529h50.382V88.85zm62.43-10.322v40.739c0 6.769-2.118 12.121-6.351 16.057-4.234 3.937-10.019 5.905-17.354 5.905-7.221 0-12.956-1.912-17.204-5.735s-6.415-9.076-6.5-15.76V78.528h12.744v40.824c0 4.05.97 7.002 2.91 8.857 1.94 1.855 4.624 2.782 8.05 2.782 7.165 0 10.804-3.766 10.917-11.3V78.528h12.788zm65.36 10.322h-18.946v51.53h-12.745V88.85h-18.691V78.529h50.382V88.85zm52.83 24.724h-24.469v16.568h28.717v10.237h-41.46V78.528h41.375V88.85h-28.632v14.74h24.469v9.983zM406.11 199.4h-20.973v22.072h-6.59v-49.979h30.961v5.389h-24.371v17.129h20.973v5.39zm50.224-1.304c0 4.897-.824 9.17-2.472 12.82-1.647 3.65-3.982 6.437-7.002 8.358-3.02 1.923-6.545 2.884-10.572 2.884-3.937 0-7.427-.967-10.47-2.9-3.044-1.934-5.406-4.692-7.089-8.273s-2.545-7.73-2.591-12.443v-3.605c0-4.805.835-9.05 2.506-12.735 1.67-3.683 4.033-6.505 7.088-8.46 3.055-1.958 6.55-2.935 10.487-2.935 4.004 0 7.534.966 10.59 2.9 3.054 1.934 5.406 4.736 7.053 8.41 1.648 3.673 2.472 7.946 2.472 12.82v3.159zm-6.557-3.227c0-5.927-1.19-10.474-3.57-13.644s-5.71-4.755-9.988-4.755c-4.166 0-7.444 1.585-9.835 4.755-2.391 3.17-3.621 7.568-3.69 13.198v3.673c0 5.744 1.207 10.258 3.621 13.542 2.414 3.283 5.738 4.925 9.973 4.925 4.256 0 7.551-1.55 9.885-4.65s3.536-7.547 3.604-13.337v-3.707zm36.123 6.385h-11.74v20.218h-6.625v-49.979h16.546c5.629 0 9.96 1.281 12.992 3.844 3.032 2.563 4.548 6.294 4.548 11.19 0 3.113-.84 5.825-2.523 8.136-1.682 2.312-4.022 4.04-7.02 5.184l11.74 21.213v.412h-7.07L485.9 201.254zm-11.74-5.39h10.127c3.272 0 5.875-.847 7.809-2.544 1.933-1.697 2.9-3.966 2.9-6.81 0-3.094-.921-5.466-2.763-7.117-1.842-1.65-4.503-2.488-7.98-2.511H474.16v18.982zm74.307 3.33c-5.652-1.625-9.765-3.622-12.34-5.99-2.574-2.368-3.861-5.292-3.861-8.77 0-3.936 1.573-7.192 4.72-9.766 3.145-2.574 7.236-3.861 12.27-3.861 3.433 0 6.494.664 9.183 1.99 2.689 1.328 4.771 3.158 6.248 5.492 1.476 2.335 2.213 4.887 2.213 7.655h-6.624c0-3.03-.962-5.414-2.884-7.148s-4.634-2.6-8.135-2.6c-3.25 0-5.784.716-7.603 2.149-1.82 1.433-2.73 3.422-2.73 5.966 0 2.04.864 3.766 2.593 5.175 1.727 1.41 4.668 2.7 8.821 3.87 4.154 1.168 7.403 2.456 9.749 3.865 2.345 1.407 4.085 3.049 5.218 4.925 1.132 1.876 1.698 4.084 1.698 6.624 0 4.051-1.578 7.295-4.736 9.733-3.159 2.436-7.38 3.655-12.667 3.655-3.432 0-6.637-.658-9.611-1.973-2.975-1.316-5.27-3.119-6.883-5.407s-2.42-4.885-2.42-7.792h6.626c0 3.02 1.115 5.407 3.346 7.157 2.232 1.75 5.212 2.626 8.942 2.626 3.479 0 6.145-.71 7.998-2.128s2.78-3.352 2.78-5.801c0-2.448-.857-4.343-2.574-5.682-1.716-1.338-4.828-2.66-9.337-3.964zm67.05-1.098c0 4.897-.824 9.17-2.472 12.82-1.647 3.65-3.982 6.437-7.002 8.358-3.02 1.923-6.545 2.884-10.572 2.884-3.937 0-7.427-.967-10.47-2.9-3.044-1.934-5.406-4.692-7.088-8.273s-2.546-7.73-2.592-12.443v-3.605c0-4.805.835-9.05 2.506-12.735 1.67-3.683 4.033-6.505 7.088-8.46 3.055-1.958 6.55-2.935 10.487-2.935 4.004 0 7.535.966 10.59 2.9 3.054 1.934 5.406 4.736 7.053 8.41 1.648 3.673 2.472 7.946 2.472 12.82v3.159zm-6.557-3.227c0-5.927-1.19-10.474-3.57-13.644s-5.71-4.755-9.988-4.755c-4.166 0-7.444 1.585-9.835 4.755-2.391 3.17-3.621 7.568-3.69 13.198v3.673c0 5.744 1.207 10.258 3.622 13.542 2.414 3.283 5.737 4.925 9.972 4.925 4.256 0 7.551-1.55 9.885-4.65s3.536-7.547 3.604-13.337v-3.707zm45.357 4.531h-20.974v22.072h-6.59v-49.979h30.962v5.389h-24.372v17.129h20.974v5.39zm49.467-22.518h-16.065v44.59h-6.556v-44.59h-16.03v-5.389h38.65v5.389zm21.876 28.834l.962 6.59 1.407-5.938 9.886-34.875h5.561l9.646 34.875 1.373 6.041 1.064-6.727 7.757-34.189h6.625l-12.117 49.979h-6.007l-10.297-36.42-.79-3.81-.79 3.81-10.675 36.42h-6.007l-12.083-49.979h6.59l7.896 34.223zm77.427 2.678h-20.94l-4.702 13.078h-6.797l19.085-49.979h5.768l19.12 49.979h-6.763l-4.771-13.078zm-18.948-5.39h16.99l-8.512-23.376-8.478 23.376zm57.578-1.75h-11.74v20.218h-6.624v-49.979h16.544c5.63 0 9.96 1.281 12.994 3.844 3.03 2.563 4.547 6.294 4.547 11.19 0 3.113-.84 5.825-2.523 8.136-1.682 2.312-4.021 4.04-7.02 5.184l11.74 21.213v.412h-7.07l-10.848-20.218zm-11.74-5.39h10.127c3.272 0 5.875-.847 7.81-2.544 1.933-1.697 2.9-3.966 2.9-6.81 0-3.094-.922-5.466-2.764-7.117-1.842-1.65-4.502-2.488-7.98-2.511h-10.092v18.982zm66.816 2.506h-21.66v17.712h25.16v5.39h-31.751v-49.979h31.408v5.389h-24.817v16.098h21.66v5.39zm49.317.824c-5.652-1.625-9.765-3.622-12.34-5.99-2.575-2.368-3.862-5.292-3.862-8.77 0-3.936 1.573-7.192 4.72-9.766s7.237-3.861 12.271-3.861c3.433 0 6.494.664 9.183 1.99 2.689 1.328 4.772 3.158 6.247 5.492 1.477 2.335 2.214 4.887 2.214 7.655h-6.624c0-3.03-.962-5.414-2.884-7.148s-4.634-2.6-8.136-2.6c-3.249 0-5.783.716-7.602 2.149-1.82 1.433-2.73 3.422-2.73 5.966 0 2.04.864 3.766 2.592 5.175 1.728 1.41 4.668 2.7 8.822 3.87 4.154 1.168 7.403 2.456 9.749 3.865 2.345 1.407 4.084 3.049 5.217 4.925s1.7 4.084 1.7 6.624c0 4.051-1.58 7.295-4.738 9.733-3.158 2.436-7.38 3.655-12.666 3.655-3.432 0-6.637-.658-9.611-1.973-2.976-1.316-5.27-3.119-6.883-5.407s-2.42-4.885-2.42-7.792h6.625c0 3.02 1.116 5.407 3.347 7.157s5.212 2.626 8.942 2.626c3.479 0 6.145-.71 7.998-2.128s2.78-3.352 2.78-5.801c0-2.448-.858-4.343-2.574-5.682-1.717-1.338-4.829-2.66-9.337-3.964zm43.34-2.609l13.043-25.092h7.484l-17.232 31.34v18.639h-6.59v-18.639l-17.233-31.34h7.552l12.975 25.092zm42.197 2.609c-5.652-1.625-9.765-3.622-12.34-5.99s-3.86-5.292-3.86-8.77c0-3.936 1.573-7.192 4.719-9.766 3.146-2.574 7.236-3.861 12.271-3.861 3.433 0 6.494.664 9.183 1.99 2.689 1.328 4.77 3.158 6.247 5.492a14.052 14.052 0 012.214 7.655h-6.625c0-3.03-.96-5.414-2.884-7.148-1.922-1.734-4.634-2.6-8.134-2.6-3.25 0-5.785.716-7.604 2.149-1.82 1.433-2.729 3.422-2.729 5.966 0 2.04.864 3.766 2.592 5.175 1.728 1.41 4.668 2.7 8.822 3.87s7.402 2.456 9.749 3.865c2.344 1.407 4.085 3.049 5.217 4.925 1.132 1.876 1.699 4.084 1.699 6.624 0 4.051-1.579 7.295-4.737 9.733-3.158 2.436-7.38 3.655-12.667 3.655-3.432 0-6.636-.658-9.611-1.973s-5.269-3.119-6.882-5.407-2.42-4.885-2.42-7.792h6.625c0 3.02 1.115 5.407 3.347 7.157 2.231 1.75 5.212 2.626 8.941 2.626 3.479 0 6.145-.71 7.998-2.128s2.782-3.352 2.782-5.801c0-2.448-.859-4.343-2.576-5.682-1.715-1.338-4.828-2.66-9.337-3.964zm63.439-22.312h-16.065v44.59h-6.555v-44.59h-16.03v-5.389h38.65v5.389zm37.31 21.488h-21.66v17.712h25.161v5.39h-31.75v-49.979h31.408v5.389h-24.819v16.098h21.66v5.39zm21.449-26.877l16.339 40.78 16.34-40.78h8.546v49.979h-6.59v-19.463l.618-21.008-16.409 40.47h-5.045l-16.373-40.367.65 20.905v19.463h-6.589v-49.979h8.513zm68.937 27.701c-5.652-1.625-9.765-3.622-12.34-5.99s-3.86-5.292-3.86-8.77c0-3.936 1.572-7.192 4.719-9.766 3.145-2.574 7.236-3.861 12.271-3.861 3.433 0 6.493.664 9.183 1.99 2.688 1.328 4.77 3.158 6.247 5.492a14.052 14.052 0 012.214 7.655h-6.625c0-3.03-.961-5.414-2.884-7.148-1.922-1.734-4.634-2.6-8.135-2.6-3.25 0-5.784.716-7.603 2.149-1.82 1.433-2.729 3.422-2.729 5.966 0 2.04.864 3.766 2.592 5.175 1.728 1.41 4.668 2.7 8.821 3.87s7.403 2.456 9.75 3.865c2.344 1.407 4.084 3.049 5.217 4.925 1.132 1.876 1.698 4.084 1.698 6.624 0 4.051-1.578 7.295-4.736 9.733-3.158 2.436-7.38 3.655-12.667 3.655-3.433 0-6.637-.658-9.611-1.973s-5.269-3.119-6.882-5.407-2.42-4.885-2.42-7.792h6.625c0 3.02 1.115 5.407 3.347 7.157 2.231 1.75 5.212 2.626 8.941 2.626 3.479 0 6.145-.71 7.998-2.128s2.781-3.352 2.781-5.801c0-2.448-.858-4.343-2.575-5.682-1.716-1.338-4.828-2.66-9.337-3.964z" fill="#333"/></svg>